<?xml version="1.0" encoding="UTF-8"?>
<svg id="Calque_1" data-name="Calque 1" xmlns="http://www.w3.org/2000/svg" viewBox="0 0 1010 1010">
  <defs>
    <style>
      .cls-1 {
        fill: #fff;
        opacity: .75;
        stroke-width: 0px;
      }
    </style>
  </defs>
  <path class="cls-1" d="m602.67,675.69c-4.82,3.4-69.59,53.64-75.87,59.19-6.28,5.52-15.55,14.72-21.83,14.72s-15.51-9.16-21.79-14.72c-6.31-5.58-71.08-55.79-75.89-59.19-4.82-3.43-8.06-9.67-2.76-12.97,5.29-3.33,21.85-11.7,44.68-23.53,22.84-11.84,51.33-21.89,55.76-21.89s32.89,10.05,55.73,21.89c22.87,11.83,39.42,20.2,44.72,23.5,5.3,3.33,2.06,9.57-2.76,13Z"/>
  <path class="cls-1" d="m754.99,392.51c0,22.11-10.75,27.95-21.57,39.43l-64.07,68.16c-6.09,6.44-18.72,16.2-11.27,33.81,7.42,17.6,18.36,40,6.18,62.71-12.18,22.68-33.05,37.87-46.43,35.37-13.35-2.5-44.78-18.96-56.33-26.45-11.54-7.52-48.15-37.75-48.15-49.29s37.84-32.32,44.82-37.08c7.01-4.69,38.92-22.96,39.56-30.13.64-7.17.41-9.27-9.01-26.97-9.42-17.73-26.39-41.35-23.53-57.09,2.83-15.73,30.13-23.88,49.64-31.27,19.51-7.36,57.05-21.29,61.75-23.47,4.69-2.16,3.48-4.22-10.75-5.55-14.18-1.37-54.52-6.73-72.7-1.66-18.17,5.08-49.23,12.79-51.76,16.88-2.51,4.09-4.73,4.24-2.13,18.36,2.57,14.11,15.89,81.86,17.17,93.92,1.29,12.02,3.81,19.98-9.13,22.93-12.98,2.98-34.8,8.12-42.29,8.12s-29.31-5.14-42.28-8.12c-12.94-2.99-10.4-10.91-9.13-22.97,1.3-12.02,14.59-79.77,17.16-93.88,2.61-14.12.38-14.24-2.12-18.36-2.54-4.09-33.59-11.8-51.76-16.88-18.17-5.07-58.49.29-72.7,1.66-14.24,1.33-15.44,3.39-10.75,5.55,4.69,2.19,42.25,16.11,61.75,23.47,19.51,7.38,46.82,15.57,49.64,31.27,2.82,15.74-14.12,39.36-23.54,57.09-9.38,17.7-9.64,19.79-9,26.99.67,7.14,32.57,25.38,39.55,30.13,6.98,4.69,44.82,25.46,44.82,37.04s-36.6,41.77-48.15,49.29c-11.54,7.49-42.97,23.91-56.33,26.45-13.38,2.5-34.26-12.66-46.43-35.37-12.18-22.74-1.24-45.1,6.22-62.71,7.42-17.6-5.2-27.37-11.29-33.81l-64.07-68.16c-10.82-11.48-21.57-17.32-21.57-39.43s85.48-125.56,85.48-125.56c0,0,72.13,13.76,81.87,13.76s30.79-8.09,50.24-14.59c19.44-6.5,32.41-6.54,32.41-6.54,0,0,12.98.04,32.42,6.54,19.44,6.5,40.54,14.62,50.27,14.62s81.83-13.84,81.83-13.84c0,0,85.49,103.5,85.49,125.6Z"/>
</svg>