<?xml version="1.0" encoding="UTF-8"?>
<svg id="Calque_1" data-name="Calque 1" xmlns="http://www.w3.org/2000/svg" viewBox="0 0 1010 1010">
  <defs>
    <style>
      .cls-1 {
        fill: #fff;
        stroke-width: 0px;
      }

      .cls-2 {
        opacity: .75;
      }
    </style>
  </defs>
  <g class="cls-2">
    <path class="cls-1" d="m249.61,505.15v-46.91h50.39v-159.86h-50.39v-46.91h152.91v46.91h-50.39v159.86h50.39v46.91h-152.91Z"/>
    <path class="cls-1" d="m544.99,508.63c-26.64,0-47.78-7.24-63.42-21.72-15.64-14.48-23.46-34-23.46-58.56h52.13c0,10.66,3.13,19.17,9.38,25.54,6.26,6.37,14.71,9.56,25.37,9.56s19.11-3.07,25.37-9.21c6.26-6.14,9.38-14.54,9.38-25.19v-177.58h52.13v177.58c0,24.56-7.77,43.96-23.29,58.21-15.52,14.25-36.72,21.37-63.59,21.37Z"/>
    <path class="cls-1" d="m253.08,762.49v-48.65h250.21v48.65h-250.21Z"/>
  </g>
</svg>